<?xml version="1.0" encoding="UTF-8" standalone="no"?>
<!-- Created with Inkscape (http://www.inkscape.org/) -->

<svg
   version="1.1"
   id="svg1"
   width="273"
   height="256"
   viewBox="0 0 273 256"
   sodipodi:docname="logoCultisoft.svg"
   inkscape:version="1.3.2 (091e20e, 2023-11-25, custom)"
   xmlns:inkscape="http://www.inkscape.org/namespaces/inkscape"
   xmlns:sodipodi="http://sodipodi.sourceforge.net/DTD/sodipodi-0.dtd"
   xmlns="http://www.w3.org/2000/svg"
   xmlns:svg="http://www.w3.org/2000/svg">
  <defs
     id="defs1" />
  <sodipodi:namedview
     id="namedview1"
     pagecolor="#ffffff"
     bordercolor="#111111"
     borderopacity="1"
     inkscape:showpageshadow="0"
     inkscape:pageopacity="0"
     inkscape:pagecheckerboard="1"
     inkscape:deskcolor="#d1d1d1"
     showgrid="false"
     inkscape:zoom="2.8284271"
     inkscape:cx="164.40233"
     inkscape:cy="126.39534"
     inkscape:window-width="1920"
     inkscape:window-height="1057"
     inkscape:window-x="-8"
     inkscape:window-y="-8"
     inkscape:window-maximized="1"
     inkscape:current-layer="g1" />
  <g
     inkscape:groupmode="layer"
     inkscape:label="Image"
     id="g1">
    <path
       id="path69889"
       style="fill:#000000"
       d="m 123.32422,11.148438 c -2.27829,-0.01297 -4.6747,0.04026 -7.2168,0.152343 C 102.7026,11.891805 94.143014,13.742844 83.050781,18.453125 59.47434,28.464785 41.525698,49.911778 34.228516,76.789062 31.781684,85.80133 31.591797,87.973003 31.591797,107 c 0,19.06454 0.186083,21.18606 2.65625,30.28906 3.726617,13.73327 10.546094,26.23179 19.535156,35.80469 11.63688,12.3927 25.058187,19.94665 42.392578,23.85937 4.578469,1.03346 10.461719,1.9165 13.074219,1.9629 4.3612,0.0774 4.75,-0.1112 4.75,-2.29883 0,-1.8869 -1.11208,-2.92672 -5.3457,-4.99805 C 103.7107,189.20046 95.159032,181.55975 91.464844,176.26172 88.346052,171.78886 83.173418,160.30976 80.603516,152.15625 71.866326,124.43582 72.333107,82.644608 81.689453,55 88.026771,36.275523 98.804204,22.458488 110.5,18.0625 c 7.29078,-2.74032 18.89768,-3.675158 27,-2.173828 17.42355,3.228518 35.02208,19.225097 39.44336,35.851562 0.86384,3.248541 1.72194,4.38902 3.66602,4.876954 1.39553,0.35026 2.92598,0.241996 3.40039,-0.240235 0.47441,-0.482228 0.95957,-10.101986 1.08007,-21.376953 0.17736,-16.594875 -0.0363,-20.5 -1.12304,-20.5 -0.79695,0 -1.89026,2.234893 -2.69141,5.5 -1.48704,6.060471 -5.27971,10.449677 -8.22266,9.515625 -0.96373,-0.305886 -5.44118,-2.981397 -9.94921,-5.947266 -13.68008,-9.000192 -23.83133,-12.329165 -39.7793,-12.419921 z m 43.54297,44.957031 c -1.45755,0.0064 -2.99703,0.05297 -4.64649,0.132812 -8.94139,0.432836 -12.13098,1.064129 -19.2207,3.798828 -7.3592,2.838648 -9.45304,4.230419 -15.5957,10.371094 -9.29746,9.294433 -11.56072,14.834028 -12.17969,29.802737 -0.36631,8.8585 -0.0851,11.89169 1.63086,17.54101 3.39536,11.17847 10.68871,20.82745 22.64453,29.96094 5.55833,4.24623 32.42907,21.28711 33.56641,21.28711 0.11233,0 0.18167,0.0424 0.22851,0.10547 h 0.002 c 0.0396,-0.009 0.0793,-0.0146 0.11914,-0.0215 0.0415,-0.005 0.082,-0.0164 0.12304,-0.0254 0.0381,-0.006 0.0763,-0.0121 0.11328,-0.0234 0.0387,-0.0143 0.077,-0.0296 0.11524,-0.0449 0.0302,-0.0115 0.0617,-0.0231 0.0898,-0.0391 0.004,-0.003 0.005,-0.003 0.006,-0.004 0.002,-0.003 0.005,-0.007 0.008,-0.01 10e-4,-0.001 0.003,-6.1e-4 0.004,-0.002 l 0.002,-0.002 c 0.0122,-0.0108 0.0259,-0.0201 0.0391,-0.0293 -1.64502,-1.53949 -7.73937,-5.75828 -14.41602,-9.93555 -16.92607,-10.58984 -26.85719,-18.22073 -31.80469,-24.44141 -15.07328,-18.95225 -15.1269,-46.461488 -0.12109,-62.503902 8.91969,-9.535874 21.50945,-13.993309 39.57617,-14.011719 11.65059,-0.01187 11.65157,-0.01169 24.3125,6.488281 6.96349,3.574988 13.73107,6.5 15.04102,6.5 2.79438,0 5.23249,-3.082281 6.10156,-7.714844 C 213.03769,60.978009 213.7739,60 215.07422,60 c 1.76774,0 1.82427,1.133141 1.26172,25.25 -0.32394,13.887458 -0.98269,25.67672 -1.46289,26.19922 -1.54237,1.67822 -2.70272,-0.67637 -4.40625,-8.94141 -3.1863,-15.459048 -10.55351,-28.726618 -19.08985,-34.380857 -4.83713,-3.20399 -8.83987,-4.407143 -4.43164,-1.332031 11.11902,7.756405 18.6886,20.371075 21.81836,36.357418 1.81683,9.28001 1.85255,9.34956 4.94727,9.6543 2.31471,0.22794 3.25037,-0.15831 3.63281,-1.5 0.28328,-0.99384 0.65971,-13.281682 0.83594,-27.30664 0.32041,-25.499924 0.32066,-25.499408 -1.98438,-25.826172 -3.03495,-0.430237 -4.812,1.1635 -5.58008,5.003906 -1.45731,7.28668 -3.88491,7.426392 -15.99218,0.919922 C 183.23221,57.976208 177.07,56.060515 166.86719,56.105469 Z m 2.63867,4.945312 c -5.92558,-0.05328 -12.84726,0.959247 -17.00586,2.814453 -6.52008,2.908705 -12.81899,9.161869 -15.64648,15.535157 -3.43538,7.743427 -3.25672,20.062288 0.40429,27.939449 3.55629,7.65181 11.64272,15.43469 24.58594,23.66016 48.1564,30.60363 56.36911,37.87985 62.20508,55.11328 2.89425,8.54662 2.41274,25.32189 -0.98047,34.13867 -7.59814,19.74277 -29.45791,30.93627 -57.56836,29.47657 -11.03317,-0.57294 -18.64812,-2.91627 -29.86914,-9.19141 -9.68589,-5.41667 -13.47247,-4.5541 -15.66016,3.57031 -0.79157,2.93967 -1.53549,3.93002 -2.77539,3.68946 -1.54896,-0.30057 -1.66146,-2.36836 -1.31054,-24.0625 0.27903,-17.25016 0.0741,-23.73438 -0.75,-23.73438 -0.80424,0 -1.18928,6.25092 -1.32227,21.5 -0.10313,11.82497 -0.2156,22.6881 -0.25,24.14062 -0.0776,3.27712 2.69223,5.32023 5.12891,3.78321 0.92977,-0.58648 2.31776,-2.95135 3.08593,-5.25586 2.13522,-6.40562 3.89332,-6.78956 11.9043,-2.5918 10.20536,5.34764 17.68227,8.32669 23.55274,9.38281 6.98233,1.2562 25.88664,0.44285 32.7207,-1.4082 15.31967,-4.14942 29.68826,-15.58364 33.95312,-27.01758 5.74756,-15.40888 5.38398,-31.06616 -1.01758,-43.81445 -6.13378,-12.21508 -15.93278,-20.87834 -43.61132,-38.55664 -31.07973,-19.85063 -35.11207,-23.13031 -40.11719,-32.62891 -2.3292,-4.42025 -2.6542,-6.19139 -2.6582,-14.5332 -0.004,-8.666055 0.2569,-9.970046 2.96289,-14.855469 5.77438,-10.425198 14.94584,-15.213322 28.82031,-15.044922 11.45561,0.139044 12.1506,0.467247 12.50781,5.896485 0.31553,4.795743 1.35421,6.648167 3.11719,5.558594 2.07193,-1.280524 0.94914,-10.832839 -1.25586,-10.683594 -0.34103,0.02308 -2.30751,-0.663162 -4.37109,-1.525391 -2.02629,-0.846636 -5.22394,-1.262954 -8.7793,-1.294922 z m 13.32617,72.216799 c -0.35914,0.047 -0.71584,0.21779 -1.03125,0.5332 -0.56415,0.56415 -0.72501,1.5134 -0.35547,2.11133 0.98021,1.58602 3.55469,1.3301 3.55469,-0.35352 0,-1.46633 -1.09055,-2.43194 -2.16797,-2.29101 z m -8.8457,35.69922 c -0.003,0.003 -0.006,0.005 -0.01,0.008 -0.0147,0.01 -0.0279,0.0212 -0.041,0.0332 -0.006,0.006 -0.0134,0.0101 -0.0195,0.0137 -0.002,0.001 -0.004,0.003 -0.006,0.004 h -0.002 c -0.002,0.002 -8.6e-4,0.003 -0.006,0.006 -0.0319,0.0178 -0.0654,0.0341 -0.0996,0.0469 -0.0408,0.0161 -0.0817,0.0301 -0.12304,0.0449 -0.0395,0.0117 -0.0805,0.0203 -0.1211,0.0273 -0.0424,0.009 -0.0839,0.0194 -0.12695,0.0254 -0.0366,0.006 -0.0731,0.0119 -0.10937,0.0195 0.38998,1.34907 -7.05662,10.12739 -13.03321,15.15039 -6.91196,5.80918 -13.71816,9.029 -22.67968,10.72852 -5.56157,1.05473 -6.39757,1.53798 -5.02735,2.9082 1.40378,1.40378 12.36416,-1.42217 19.51367,-5.03125 3.34165,-1.68685 9.28887,-5.06658 13.21485,-7.50976 C 169.2365,182.9982 173.44053,181 174.65234,181 c 3.16314,0 6.20408,4.43584 6.96289,10.15625 0.49892,3.76098 1.0312,4.8649 2.23633,4.63281 1.3304,-0.2562 1.5331,-1.72568 1.27344,-9.23828 l -0.30664,-8.87695 c -0.004,-0.008 -0.008,-0.0156 -0.0117,-0.0234 -0.008,-0.0153 -0.0174,-0.0309 -0.0234,-0.0469 -0.006,-0.0146 -0.0106,-0.0296 -0.0156,-0.0449 -0.003,-0.009 -0.002,-0.016 0,-0.0215 C 184.26581,177.59379 183.5306,176.99144 183,176 c -0.60519,-1.13081 -1.50519,-1.80581 -2,-1.5 -0.49481,0.30581 -1.38646,-0.35296 -1.98047,-1.46289 -0.59402,-1.10993 -1.45712,-1.90936 -1.91797,-1.77734 -0.46085,0.13203 -1.68352,-0.74977 -2.71875,-1.95899 -0.058,-0.0677 -0.28319,-0.23427 -0.39453,-0.33398 z m 10.99219,8.54687 c -0.0512,0.0317 -0.12205,0.0113 -0.18164,0.0215 0.003,0.004 0.006,0.007 0.008,0.0117 0.004,0.0135 0.01,0.0281 0.0156,0.041 0.006,0.0155 0.0145,0.03 0.0215,0.0449 0.002,0.004 0.004,0.009 0.006,0.0137 3.2e-4,7.8e-4 0.002,0.001 0.002,0.002 l 5.61914,5.41015 c 3.47587,3.34717 6.8797,7.9368 8.8418,11.92383 2.95554,6.00584 3.18724,7.21909 3.15234,16.5 -0.0312,8.29334 -0.44276,10.92611 -2.38672,15.29688 -5.39386,12.12752 -18.39903,18.92595 -34.40429,17.98242 -16.92675,-0.99786 -27.48987,-8.25584 -35.16016,-24.15625 -2.41599,-5.00831 -4.89774,-11.80547 -5.51563,-15.10547 -0.6179,-3.3 -1.66906,-8.88402 -2.33593,-12.4082 -1.32679,-7.01175 -3.3657,-9.39257 -6.41016,-7.48633 -1.92334,1.20427 -3.02194,7.39453 -1.3125,7.39453 0.58485,0 1.0625,-1.35 1.0625,-3 0,-2.28576 0.45552,-3 1.91016,-3 1.59317,0 2.10581,1.19996 3.10546,7.25 3.17714,19.22818 8.66642,32.33637 17.05079,40.7207 5.9454,5.94543 10.96111,8.69933 19.32226,10.60547 9.45005,2.15439 20.26276,1.2434 27.94922,-2.35351 10.84464,-5.07484 16.37179,-12.17919 18.70508,-24.03907 2.75458,-14.0012 -1.4634,-26.72943 -12.13281,-36.60742 -3.33009,-3.08308 -6.44906,-5.36075 -6.93164,-5.0625 z" />
    <path
       style="fill:#000000"
       d="m 114.80604,192.96632 c 0.006,0.19804 0.0175,0.39799 0.0372,0.59466 0.006,0.0628 0.0302,0.12304 0.0372,0.18583 0.005,0.0493 -0.0136,0.10101 0,0.14866 0.0123,0.043 0.0621,0.0686 0.0743,0.1115 0.0136,0.0477 -0.004,0.0993 0,0.14866 0.008,0.0872 0.0299,0.17287 0.0372,0.26017 0.0172,0.20625 0,0.42494 0,0.63182 0,0.40088 -9.7e-4,0.79121 -0.0372,1.18931 -0.028,0.30757 0.0308,0.62144 0,0.92916 -0.007,0.0664 -0.0612,0.12041 -0.0743,0.18583 -0.0363,0.18143 0,0.40908 0,0.59465 0,0.39644 0,0.79288 0,1.18932 0,0.0828 -0.0212,1.00887 0,1.04065 0.0154,0.0231 0.0547,0.0176 0.0743,0.0372 0.0175,0.0175 -0.008,0.0508 0,0.0743 0.009,0.0263 0.0284,0.0481 0.0372,0.0743 0.009,0.0274 0.0648,0.21228 0.0743,0.26016 0.007,0.0365 -0.0117,0.0762 0,0.1115 0.004,0.0118 0.0248,0 0.0372,0"
       id="path69890" />
    <path
       style="fill:#000000"
       d="m 115.01045,200.223 c 0.0415,-0.0125 0.0885,0.0125 0.13008,0 0.0126,-0.004 0.0161,-0.022 0.0279,-0.0279 0.0141,-0.007 0.0323,-0.002 0.0465,-0.009 0.0412,-0.0206 0.14516,-0.16515 0.16724,-0.19512 0.0942,-0.12784 0.0736,-0.1125 0.17654,-0.28804 0.0372,-0.0634 0.0573,-0.0772 0.0743,-0.14866 0.0327,-0.13718 0.0279,-0.26913 0.0279,-0.40883 0,-0.13362 0.003,-0.26631 0.009,-0.39953 0.008,-0.16902 0.054,-0.33458 0.0743,-0.50175 0.0204,-0.16706 0.0186,-0.32535 0.0186,-0.49245 0,-0.094 0.0105,-0.19541 -0.009,-0.28803 0.027,-0.0843 -0.0379,-0.14229 -0.0557,-0.21371 -0.003,-0.0155 -0.006,-0.031 -0.009,-0.0465 -0.003,-0.003 -0.007,-0.005 -0.009,-0.009 -0.005,-0.009 0.009,-0.0186 0,-0.0279 -0.009,-0.009 -0.0464,0.009 -0.0558,0 -0.004,-0.004 0,-0.0124 0,-0.0186 0,-0.0124 0,-0.0248 0,-0.0372 0,-0.031 0,-0.0619 0,-0.0929 0,-0.0341 -0.009,-0.0693 0,-0.1022 0.0221,-0.0811 0.13667,-0.22582 0.18583,-0.29733 0.029,-0.0422 0.0515,-0.0937 0.0743,-0.13938 0.01,-0.0199 0.003,-0.11191 0,-0.13008 -0.004,-0.0222 -0.0158,-0.0427 -0.0186,-0.065 -0.0108,-0.0867 0,-0.18194 0,-0.26945 0,-0.25869 0.007,0.0638 -0.0186,-0.17654 -0.0153,-0.1457 0.0162,-0.0398 -0.009,-0.16725 -0.004,-0.0221 -0.0154,-0.0427 -0.0186,-0.065 -0.0122,-0.085 0.0121,-0.0451 0,-0.13008 -0.003,-0.0223 -0.0139,-0.043 -0.0186,-0.065 -0.0143,-0.0667 -0.0211,-0.137 -0.0279,-0.20441 -0.002,-0.0154 0.003,-0.0312 0,-0.0465 -0.004,-0.0193 -0.0151,-0.0365 -0.0186,-0.0557 -0.003,-0.0152 10e-4,-0.031 0,-0.0465 -0.004,-0.0448 -0.0114,-0.087 -0.0186,-0.13008 -0.002,-0.012 0.006,-0.0528 0,-0.065 -0.001,-0.003 -0.008,0.003 -0.009,0 -0.003,-0.006 0.003,-0.0134 0,-0.0186 -0.004,-0.006 -0.0137,-0.004 -0.0186,-0.009 -0.009,-0.009 -0.004,-0.0257 -0.009,-0.0372 -0.002,-0.004 -0.008,-0.005 -0.009,-0.009 -0.002,-0.0122 0.007,-0.0273 0,-0.0372 -0.006,-0.007 -0.0223,0.007 -0.0279,0 -0.007,-0.01 0.005,-0.0257 0,-0.0372 -0.007,-0.0184 -0.0727,-0.009 -0.0836,-0.009 -0.0934,0 -0.24469,-0.0203 -0.32521,0.0372 -0.0107,0.008 -0.0172,0.0202 -0.0279,0.0279 -0.0336,0.024 -0.0674,0.0386 -0.0929,0.0743 -0.0569,0.0796 -0.10438,0.22735 -0.14866,0.31591 -0.0174,0.0347 -0.0397,0.0669 -0.0558,0.1022 -0.015,0.033 -0.024,0.0684 -0.0372,0.10221 -0.0537,0.13732 -0.0698,0.14767 -0.12079,0.31591 -0.0174,0.0575 -0.0246,0.11774 -0.0372,0.17654 -0.0275,0.12818 -0.0135,0.34576 0.0186,0.47387 0.006,0.0229 0.0225,0.0421 0.0279,0.065 0.007,0.0303 0.003,0.0624 0.009,0.0929 0.03,0.14986 0.0282,0.0365 0.0558,0.19512 0.006,0.0367 0.004,0.0746 0.009,0.1115 0.007,0.0438 0.0209,0.0863 0.0279,0.13008 0.005,0.0338 0.005,0.0683 0.009,0.1022 0.0427,0.32758 -0.004,-0.0677 0.0372,0.19513 0.005,0.0307 0.004,0.0622 0.009,0.0929 0.004,0.0252 0.0154,0.049 0.0186,0.0743 0.005,0.04 -0.007,0.0811 0,0.12079 0.009,0.0568 0.0319,0.1091 0.0372,0.16725 0.0105,0.11537 -0.0265,-0.0451 0.009,0.15796 0.003,0.0164 0.0153,0.0301 0.0186,0.0464 10e-4,0.007 -0.001,0.0725 0,0.0836 0.0137,0.13738 0.0186,0.27086 0.0186,0.40882 0,0.20051 0.0111,0.40385 0,0.60395 -0.003,0.056 -0.0151,0.11127 -0.0186,0.16725 0,0.2029 0.008,-0.0483 -0.0186,0.1115 -0.004,0.0214 0.003,0.0436 0,0.065 -0.009,0.0556 -0.0379,0.11169 -0.0465,0.16725 -0.007,0.0429 0.007,0.0873 0,0.13008 -0.003,0.0165 -0.0153,0.0301 -0.0186,0.0465 -0.007,0.0364 0,0.0743 0,0.11149 0,0.0774 0,0.15486 0,0.23229 0,0.0261 0.0131,0.16274 0.0186,0.17654 0.003,0.008 0.0153,0.0104 0.0186,0.0186 0.009,0.0225 -0.003,0.048 0,0.0465 0.0138,-0.007 0.0237,-0.0356 0.0372,-0.0279 0.12379,0.0707 -0.0203,0.065 0.0465,0.065"
       id="path69891" />
    <path
       style="fill:#000000"
       d="m 115.75377,194.9547 c -0.0133,-0.0952 0.017,-0.18615 0.0279,-0.27874 0.0117,-0.0993 0,-0.25884 0,-0.36237 0,-0.0898 0,-0.17964 0,-0.26945 0,-0.0465 0.0101,-0.094 0,-0.13938 -0.005,-0.023 -0.025,-0.0416 -0.0279,-0.065 -0.002,-0.0184 0.005,-0.0377 0,-0.0557 -0.002,-0.008 -0.0162,-0.0102 -0.0186,-0.0186 -0.004,-0.0149 0.004,-0.0316 0,-0.0465 -0.002,-0.008 -0.0158,-0.0103 -0.0186,-0.0186 -0.006,-0.0176 0.008,-0.0391 0,-0.0557 -0.022,-0.044 -0.0198,0.0104 -0.0279,-0.0465 -0.01,-0.0669 -0.01,-0.1406 -0.0372,-0.20441 -0.004,-0.0103 -0.0147,-0.0174 -0.0186,-0.0279 -0.006,-0.0148 -0.006,-0.031 -0.009,-0.0464 -0.006,-0.0217 -0.0102,-0.0441 -0.0186,-0.065 -0.004,-0.0104 -0.0164,-0.0169 -0.0186,-0.0279 -0.004,-0.0213 0.005,-0.0438 0,-0.065 -0.008,-0.0394 -0.0327,-0.0737 -0.0465,-0.1115 -0.0214,-0.0589 -0.0404,-0.11897 -0.065,-0.17654 -0.0108,-0.0252 -0.0269,-0.0488 -0.0372,-0.0743 -0.004,-0.009 -0.004,-0.0195 -0.009,-0.0279 -0.026,-0.0433 -0.0623,-0.0644 -0.10221,-0.0929 -0.0259,-0.0185 -0.0481,-0.0476 -0.0743,-0.065 -0.0198,-0.0307 -0.0571,-0.022 -0.0836,-0.0372 -0.0134,-0.008 -0.0225,-0.023 -0.0372,-0.0279 -0.0147,-0.005 -0.0314,0.004 -0.0465,0 -0.0235,-0.0157 -0.0283,-0.0224 -0.0558,-0.0279 -0.0121,-0.002 -0.0253,0.003 -0.0372,0 -0.016,-0.005 -0.0304,-0.014 -0.0465,-0.0186 -0.0131,-0.004 -0.1785,-0.005 -0.19512,0 -0.0133,0.004 -0.0239,0.0148 -0.0372,0.0186 -0.009,0.003 -0.0188,-0.002 -0.0279,0 -0.0111,0.002 -0.0577,0.0224 -0.065,0.0279 -0.006,0.004 -0.004,0.0137 -0.009,0.0186 -0.005,0.005 -0.0232,-0.005 -0.0279,0 -0.004,0.004 0.003,0.0134 0,0.0186 -0.007,0.011 -0.0381,0.0174 -0.0464,0.0279 -0.009,0.0108 -0.0115,0.0253 -0.0186,0.0372 -0.014,0.0233 -0.0432,0.04 -0.0558,0.065 -0.009,0.0175 -0.0109,0.0377 -0.0186,0.0557 -0.004,0.0266 -0.027,0.0422 -0.0372,0.065 -0.0245,0.0295 -0.014,0.0697 -0.0279,0.1022 -0.003,0.008 -0.0153,0.0104 -0.0186,0.0186 -0.007,0.0175 -0.006,0.25192 0,0.26945 0.004,0.0106 0.0155,0.0171 0.0186,0.0279 0.0144,0.0506 -0.0108,0.0217 0,0.065 0.004,0.0162 0.0145,0.0303 0.0186,0.0464 0.002,0.009 -10e-4,0.0187 0,0.0279 0.004,0.0291 0.0129,0.0553 0.0186,0.0836 0.002,0.0111 -0.003,0.0376 0,0.0465 0.006,0.0169 0.0222,0.0293 0.0279,0.0465 0.004,0.0118 -0.002,0.0249 0,0.0372 0.003,0.0203 0.0157,0.0448 0.0186,0.065 0.0114,0.08 0.0268,0.15377 0.0465,0.23229 0.0115,0.046 0.0236,0.0922 0.0279,0.13938 0.003,0.0278 -0.008,0.0568 0,0.0836 0.004,0.0133 0.0156,0.0236 0.0186,0.0372 0.004,0.0183 -0.008,0.0633 0,0.0836 0.004,0.0104 0.0144,0.0175 0.0186,0.0279 0.005,0.0115 -0.002,0.025 0,0.0372 0.009,0.044 0.0128,0.0131 0.0186,0.065 0.002,0.0154 -0.002,0.0311 0,0.0465 0.003,0.0233 0.0222,0.0422 0.0279,0.065 0.003,0.0103 -0.002,0.0344 0,0.0465 0.004,0.0313 0.0157,0.0615 0.0186,0.0929 0.002,0.0185 -0.002,0.0372 0,0.0557 0.004,0.0442 0.0224,0.0861 0.0279,0.13008 0.003,0.0277 -0.006,0.0564 0,0.0836 0.005,0.022 0.0149,0.0428 0.0186,0.065 0.005,0.0294 -0.006,0.0635 0,0.0929 0.001,0.007 0.008,0.0119 0.009,0.0186 0.003,0.012 -0.004,0.0254 0,0.0372 0.004,0.0131 0.0142,0.024 0.0186,0.0372 0.0139,0.0416 -0.0106,0.0968 0,0.13937 0.003,0.0108 0.0155,0.0171 0.0186,0.0279 0.0104,0.0363 0.002,0.0835 0.009,0.12079 8.6e-4,0.004 0.008,0.005 0.009,0.009 0.012,0.0359 -0.009,0.0751 0.009,0.1115 0.0157,0.0313 -0.0156,0.15453 0,0.18583 0.004,0.008 0.0147,0.0108 0.0186,0.0186 0.003,0.006 0,0.04 0,0.0464"
       id="path69892" />
    <path
       style="fill:#000000"
       d="m 115.21487,196.23693 -0.23229,-1.25435"
       id="path69893" />
    <path
       style="fill:#000000"
       d="m 114.6295,194.73171 c -0.0235,0.14093 0.0116,-0.0168 -0.0372,0.0929 -0.006,0.0144 -0.006,0.031 -0.009,0.0465 -0.006,0.0186 -0.0106,0.0378 -0.0186,0.0557 -0.005,0.0102 -0.0151,0.0173 -0.0186,0.0279 -0.008,0.024 0.0112,0.0613 0,0.0836 -0.004,0.008 -0.0153,0.0104 -0.0186,0.0186 -0.01,0.0247 0,0.25709 0,0.30662 0,0.10818 -0.0118,0.23765 0,0.34379 10e-4,0.0127 0.008,0.0245 0.009,0.0372 0.004,0.0399 -0.006,0.093 0.009,0.13008 0.004,0.0104 0.0144,0.0175 0.0186,0.0279 0.012,0.03 -0.006,0.0807 0,0.1115 0.003,0.0164 0.0142,0.0304 0.0186,0.0465 0.009,0.0334 0.0155,0.0677 0.0186,0.1022 0.007,0.0769 -0.01,0.033 0.009,0.10221 0.0123,0.0449 0.032,0.093 0.0372,0.13937 0.006,0.0508 0.005,0.0975 0.009,0.14867 0.009,0.0949 0.008,-0.012 0.0186,0.065 0.003,0.0184 -0.007,0.0385 0,0.0558 0.004,0.0104 0.0151,0.0173 0.0186,0.0279 0.0164,0.0492 -0.015,0.17049 0,0.223 0.004,0.0133 0.0152,0.0237 0.0186,0.0372 0.008,0.033 0,0.0772 0,0.1115 0,0.04 0.004,0.0725 0.009,0.1115 0.004,0.026 -0.007,0.0584 0,0.0836 0.004,0.0133 0.0142,0.024 0.0186,0.0372 0.007,0.0206 0,0.0434 0,0.065 0,0.058 -0.0113,0.18139 0,0.23229 0.004,0.0163 0.0145,0.0303 0.0186,0.0465 0.0102,0.041 -0.008,0.0886 0,0.13008 0.001,0.007 0.008,0.0119 0.009,0.0186 0.0114,0.0455 0,0.23304 0,0.28804 0,0.14866 0,0.29733 0,0.44599 0,0.0919 0.007,0.18711 0,0.27875 -0.0137,0.19166 -0.009,0.38382 -0.009,0.57607 0,0.13523 -0.01,0.27553 0.009,0.40883 0.005,0.0357 -0.009,0.0767 0,0.1115 0.003,0.0134 0.0156,0.0236 0.0186,0.0372 0.005,0.0212 -0.008,0.0449 0,0.065 0.004,0.0104 0.0142,0.0176 0.0186,0.0279 0.0122,0.0284 0.0116,0.0658 0.0279,0.0929 0.005,0.008 0.0147,0.0108 0.0186,0.0186 0.0213,0.0426 -0.006,0.0312 0.0279,0.065 0.002,0.002 0.007,-0.002 0.009,0 0.031,0.0232 0.0206,0.0258 0.0465,0.0465 0.0622,0.0498 0.16357,0.0595 0.24158,0.0465 0.007,-0.001 0.0117,-0.008 0.0186,-0.009 0.0153,-0.002 0.0316,0.004 0.0465,0 0.005,-0.001 0.0413,-0.0357 0.0465,-0.0372 0.0208,-0.006 0.047,0.012 0.065,0 0.005,-0.003 -0.002,-0.0128 0,-0.0186 0.004,-0.0104 0.01,-0.0212 0.0186,-0.0279 0.005,-0.004 0.0128,0.002 0.0186,0 0.0433,-0.0173 0.0537,-0.0444 0.0836,-0.0743 0.008,-0.008 0.02,-0.0107 0.0279,-0.0186 0.009,-0.009 0.0138,-0.038 0.0186,-0.0465 0.0276,-0.0482 0.0842,-0.076 0.1022,-0.13008 0.0103,-0.031 0.022,-0.0863 0.0372,-0.1115 0.008,-0.0133 0.0218,-0.0229 0.0279,-0.0372 0.002,-0.005 0.0128,-0.0848 0.0186,-0.10221 0.005,-0.0158 0.0158,-0.03 0.0186,-0.0465 0.004,-0.0214 -0.002,-0.0435 0,-0.065 9.7e-4,-0.01 0.006,-0.0186 0.009,-0.0279 0.003,-0.0217 0.007,-0.0432 0.009,-0.065 10e-4,-0.0154 -0.003,-0.0312 0,-0.0465 0.009,-0.0563 0.0301,-0.11058 0.0372,-0.16725 0.006,-0.0491 0.003,-0.0996 0.009,-0.14866 0.004,-0.0313 0.0149,-0.0615 0.0186,-0.0929 0.005,-0.0444 -0.002,-0.0955 0.009,-0.13937 0.004,-0.0162 0.0145,-0.0303 0.0186,-0.0465 0.005,-0.021 -0.002,-0.0434 0,-0.065 0.005,-0.0659 0.0207,-0.13026 0.0279,-0.19512 0.003,-0.0277 -0.003,-0.056 0,-0.0836 0.0464,-0.37102 -0.006,0.0491 0.0372,-0.16725 0.009,-0.0443 0.005,-0.0942 0.009,-0.13937 0.005,-0.0499 0.0131,-0.0994 0.0186,-0.14867 0.002,-0.0154 -0.004,-0.0316 0,-0.0465 0.002,-0.008 0.0162,-0.0102 0.0186,-0.0186 0.0113,-0.0394 -0.006,-0.0893 0,-0.13008 0.001,-0.01 0.008,-0.0182 0.009,-0.0279 0.004,-0.0276 -0.003,-0.056 0,-0.0836 0.0147,-0.11734 0.005,0.0825 0.0186,-0.065 0.003,-0.037 -0.007,-0.0749 0,-0.1115 0.004,-0.0193 0.016,-0.0363 0.0186,-0.0557 0.007,-0.0494 -0.006,-0.10823 0,-0.15795 0.005,-0.044 0.0242,-0.0859 0.0279,-0.13008 0.0207,-0.24883 -0.0275,0.12349 0.0186,-0.13009 0.002,-0.0122 -0.003,-0.0251 0,-0.0372 0.004,-0.0163 0.0156,-0.03 0.0186,-0.0465 0.0194,-0.1069 -0.0228,-0.005 0.009,-0.1115 0.004,-0.0133 0.0159,-0.0236 0.0186,-0.0372 0.007,-0.0364 -0.008,-0.0752 0,-0.1115 0.002,-0.0109 0.0162,-0.017 0.0186,-0.0279 0.004,-0.0181 -0.001,-0.0372 0,-0.0557 0.006,-0.0716 0.0135,-0.14214 0.0186,-0.2137 0.006,-0.0809 0.0217,-0.16076 0.0279,-0.24158 0.003,-0.0432 -0.007,-0.0873 0,-0.13008 0.003,-0.0164 0.0145,-0.0303 0.0186,-0.0465 0.007,-0.027 -0.003,-0.0559 0,-0.0836 0.001,-0.0127 0.007,-0.0245 0.009,-0.0372 0.009,-0.0621 0,-0.13237 0,-0.19512 0,-0.1089 0.004,-0.21759 -0.009,-0.3252 -0.002,-0.0154 0.002,-0.0311 0,-0.0465 -0.005,-0.0316 -0.0142,-0.0621 -0.0186,-0.0929 -0.002,-0.0123 0.006,-0.0261 0,-0.0372 -0.003,-0.006 -0.0124,0 -0.0186,0 0,-0.0124 0,-0.0248 0,-0.0372 0,-0.0687 0.006,0.0324 -0.0186,-0.0279 -0.005,-0.0115 0.002,-0.025 0,-0.0372 -0.004,-0.021 -0.0131,-0.0524 -0.0186,-0.0743 -0.003,-0.0124 -0.005,-0.0253 -0.009,-0.0372 -0.004,-0.0104 -0.0155,-0.0171 -0.0186,-0.0279 -0.006,-0.02 0.006,-0.045 0,-0.065 -0.004,-0.0133 -0.0137,-0.0242 -0.0186,-0.0372 -0.004,-0.012 -0.004,-0.0254 -0.009,-0.0372 -0.004,-0.0103 -0.0159,-0.017 -0.0186,-0.0279 -0.004,-0.015 0.003,-0.0313 0,-0.0465 0.005,-0.0273 -0.0221,-0.0422 -0.0279,-0.065 -0.007,-0.026 -0.006,-0.0585 -0.0186,-0.0836 -0.004,-0.008 -0.0162,-0.0102 -0.0186,-0.0186 -0.007,-0.0238 0.0111,-0.0522 0,-0.0743 -0.006,-0.0118 -0.0238,-0.0116 -0.0279,-0.0279 -0.007,-0.0262 -9.6e-4,-0.0494 -0.009,-0.0743 -0.01,-0.029 -0.0286,-0.0537 -0.0372,-0.0836 -0.008,-0.0274 -0.01,-0.0565 -0.0186,-0.0836 -0.001,-0.004 -0.008,-0.005 -0.009,-0.009 -0.004,-0.022 0.008,-0.0385 -0.009,-0.0557 -0.005,-0.005 -0.0147,-0.004 -0.0186,-0.009 -0.003,-0.005 0.001,-0.0125 0,-0.0186 -0.002,-0.0126 -0.005,-0.025 -0.009,-0.0372 -0.009,-0.0276 -0.007,-0.0559 -0.0186,-0.0836 -0.004,-0.0103 -0.0144,-0.0175 -0.0186,-0.0279 -0.002,-0.005 0.004,-0.0442 0,-0.0465 -0.006,-0.003 -0.0124,0 -0.0186,0"
       id="path69894" />
    <path
       style="fill:#000000"
       d="m 114.64808,192.3345 0.26017,0.17653"
       id="path69895" />
    <path
       style="fill:#000000"
       d="m 114.36005,192.46458 c -0.006,0.0421 0.008,0.0884 0,0.13008 -0.001,0.007 -0.008,0.0117 -0.009,0.0186 -0.006,0.0432 0.0107,0.0966 0,0.13937 -0.0178,0.071 -0.0161,0.23815 -0.009,0.30662 0.002,0.0157 0.008,0.0307 0.009,0.0465 0.004,0.0494 -0.004,0.0993 0,0.14867 0.001,0.0157 0.008,0.0307 0.009,0.0465 0.005,0.0607 6.9e-4,0.12562 0.009,0.18583 0.029,0.20279 0.0112,-0.0706 0.0279,0.13009 0.002,0.0247 -0.004,0.0498 0,0.0743 0.007,0.0513 0.0221,0.0968 0.0279,0.14866 0.004,0.0351 -3.6e-4,0.0777 0.009,0.1115 0.004,0.0133 0.0142,0.024 0.0186,0.0372 0.008,0.0248 -0.01,0.0594 0,0.0836 0.004,0.0104 0.0144,0.0175 0.0186,0.0279 0.01,0.025 0.005,0.057 0.009,0.0836 0.005,0.0377 0.0133,0.0746 0.0186,0.1115 0.002,0.0123 -0.003,0.0252 0,0.0372 0.003,0.0107 0.0144,0.0175 0.0186,0.0279 0.0171,0.0428 7.2e-4,0.0965 0.009,0.13937 0.009,0.0458 0.0119,0.0924 0.0186,0.13937 0.003,0.0205 -0.008,0.0549 0,0.0743 0.004,0.0104 0.0155,0.0171 0.0186,0.0279 0.004,0.0149 -0.006,0.16109 0,0.16725 0.005,0.005 0.0147,0.004 0.0186,0.009 0.007,0.0104 -0.004,0.0343 0,0.0465 0.0121,0.0362 0.009,8.7e-4 0.009,0.0372"
       id="path69896" />
    <path
       style="fill:#000000"
       d="m 115.05691,193.39373 -0.50174,-0.81766"
       id="path69897" />
    <path
       style="fill:#000000"
       d="m 114.38792,192.59466 c -0.0121,0.0417 -0.0484,0.0727 -0.065,0.1115 -0.005,0.0117 -0.004,0.0254 -0.009,0.0372 -0.009,0.0205 -0.0289,0.035 -0.0372,0.0557 -0.011,0.0275 0.004,0.0724 0,0.10221 -0.0183,0.12789 -0.009,0.26086 -0.009,0.39024 0,0.12079 0,0.24158 0,0.36237 0,0.061 -0.0101,0.13431 0,0.19512 0.009,0.0551 0.0143,0.11287 0.0279,0.16725 0.004,0.0162 0.0153,0.0301 0.0186,0.0465 0.003,0.0152 -0.001,0.031 0,0.0465 0.01,0.10918 0.008,3e-4 0.0279,0.12079 0.003,0.0153 -0.004,0.0314 0,0.0464 0.003,0.0108 0.0142,0.0176 0.0186,0.0279 0.0189,0.0442 0.009,0.0961 0.0279,0.13937 0.0121,0.0281 0.0339,0.0602 0.0372,0.0929 0.002,0.0176 -0.008,0.0703 0.009,0.0929 0.004,0.006 0.0164,0.003 0.0186,0.009 0.009,0.0279 -0.009,0.065 0,0.0929 0.002,0.006 0.0262,0.035 0.0279,0.0465 0.006,0.0403 0.002,0.0726 0.0186,0.11149 0.0622,0.1243 -0.0154,-0.0447 0.0186,0.0743 0.006,0.0208 0.0394,0.0716 0.0465,0.0929 0.009,0.0271 0.005,0.0587 0.0186,0.0836 0.005,0.008 0.0192,-0.003 0.0279,0 0.008,0.003 0.0108,0.0147 0.0186,0.0186 0.0334,0.0167 0.11377,0.0163 0.14867,0.009 0.003,-6.1e-4 -0.002,-0.007 0,-0.009 0.014,-0.014 0.0302,-0.0258 0.0464,-0.0372 0.0148,-0.0103 0.0352,-0.0138 0.0465,-0.0279 0.0147,-0.0184 0.0162,-0.0446 0.0279,-0.065 0.0132,-0.0231 0.034,-0.0415 0.0464,-0.065 0.0533,-0.1006 0.0272,-0.0682 0.0465,-0.15796 0.0103,-0.0479 0.039,-0.091 0.0465,-0.13937 0.0172,-0.11162 0.009,-0.23083 0.009,-0.34379 0,-0.12008 0.007,-0.24251 0,-0.36237 -0.005,-0.0837 -0.0226,-0.16708 -0.0279,-0.25087 -10e-4,-0.0216 0.002,-0.0434 0,-0.065 -0.005,-0.074 -0.0321,-0.14196 -0.0464,-0.21371 -0.005,-0.0245 -0.003,-0.0502 -0.009,-0.0743 -0.006,-0.0228 -0.0229,-0.042 -0.0279,-0.065 -0.005,-0.0212 0.004,-0.0438 0,-0.065 -0.005,-0.0245 -0.0311,-0.0408 -0.0372,-0.065 -0.003,-0.012 0.005,-0.0258 0,-0.0372 -0.005,-0.0121 -0.0202,-0.0172 -0.0279,-0.0279 -0.0271,-0.0379 -0.0146,-0.0478 -0.0372,-0.0929 -0.007,-0.0138 -0.0215,-0.0231 -0.0279,-0.0372 -0.009,-0.0205 -0.008,-0.0449 -0.0186,-0.065 -0.0119,-0.0238 -0.033,-0.042 -0.0465,-0.065 -0.0878,-0.15057 0.0166,0.009 -0.0279,-0.065 -0.008,-0.0128 -0.0295,-0.0337 -0.0372,-0.0465 -0.005,-0.008 -0.004,-0.0197 -0.009,-0.0279 -0.002,-0.003 -0.007,0.002 -0.009,0 -0.002,-0.002 0.002,-0.007 0,-0.009 -0.002,-10e-4 -0.0273,-0.008 -0.0279,-0.009 -0.003,-0.006 0.004,-0.0142 0,-0.0186 -0.0186,-0.0186 -0.0139,0.009 -0.0279,0 -0.0356,-0.0237 -0.0261,-0.0177 -0.065,-0.0372 -0.019,-0.009 -0.0124,-0.0124 -0.0279,-0.0279 -0.007,-0.007 -0.0201,0.005 -0.0279,0 -0.0268,-0.0178 0.006,-0.0186 -0.0465,-0.0186"
       id="path69898" />
    <path
       style="fill:#000000"
       d="m 185.2242,65.254212 c -0.0392,0 -0.11441,0.0085 -0.15768,-0.01314 -0.0111,-0.0055 -0.0148,-0.02168 -0.0263,-0.02628 -0.0203,-0.0081 -0.0461,0.0098 -0.0657,0 -0.0111,-0.0055 -0.0148,-0.02168 -0.0263,-0.02628 -0.0122,-0.0049 -0.0265,0.0026 -0.0394,0 -0.0724,-0.01448 -0.13985,-0.07087 -0.21024,-0.09198 -0.0255,-0.0077 -0.0534,-0.0053 -0.0788,-0.01314 -0.0319,-0.0098 -0.0606,-0.0282 -0.092,-0.03942 -0.2144,-0.07657 0.0457,0.03446 -0.21024,-0.0657 -0.0932,-0.03647 -0.18101,-0.08662 -0.27595,-0.118262 -0.0474,-0.01579 -0.0969,-0.02452 -0.14454,-0.03942 -0.0225,-0.007 -0.0425,-0.02206 -0.0657,-0.02628 -0.0259,-0.0047 -0.0534,0.0064 -0.0788,0 -0.0285,-0.0071 -0.0513,-0.0291 -0.0788,-0.03942 -0.0262,-0.0098 -0.0644,-0.0063 -0.092,-0.01314 -0.0308,-0.0077 -0.0525,-0.04377 -0.0788,-0.05256 -0.0422,-0.01408 -0.0116,0.01965 -0.0526,-0.01314 -0.052,-0.04162 -0.0279,-0.03158 -0.0657,-0.07884 -0.0155,-0.01935 -0.0398,-0.03131 -0.0526,-0.05256 -0.007,-0.01188 -0.004,-0.0286 -0.0131,-0.03942 -0.01,-0.01233 -0.0296,-0.01395 -0.0394,-0.02628 -0.0238,-0.02979 -0.0174,-0.0656 -0.0526,-0.09198 -0.007,-0.0053 -0.0201,0.0062 -0.0263,0 -0.0228,-0.02282 -0.008,-0.07129 -0.0394,-0.09198 -0.007,-0.0049 -0.0201,0.0062 -0.0263,0 -0.0124,-0.01239 0,-0.03504 0,-0.05256 0,-5.67e-4 -0.005,-0.08933 0,-0.09198 0.0347,-0.01734 0.18543,-0.0219 0.23652,0 0.0145,0.0062 0.0248,0.02041 0.0394,0.02628 0.008,0.0033 0.0201,-0.0062 0.0263,0 0.006,0.0062 -0.007,0.02142 0,0.02628 0.0109,0.0073 0.0268,-0.0036 0.0394,0 0.14408,-0.07433 0.033,0.02963 0.0526,0.03942 0.008,0.0039 0.0175,0 0.0263,0 0.009,0.0044 0.0181,0.0077 0.0263,0.01314 0.0197,0.01314 0.0131,0.02628 0.0394,0.03942 0.008,0.0039 0.0187,-0.0043 0.0263,0 0.0243,0.01391 0.0419,0.0377 0.0657,0.05256 0.0117,0.0073 0.0275,0.006 0.0394,0.01314 0.0536,0.03217 0.12997,0.104051 0.18396,0.144542 0.0204,0.01532 0.042,0.02993 0.0657,0.03942 0.008,0.0033 0.0185,-0.0039 0.0263,0 0.0111,0.0055 0.0147,0.02193 0.0263,0.02628 0.0249,0.0094 0.0536,0.0047 0.0788,0.01314 0.015,0.005 0.0248,0.02041 0.0394,0.02628 0.008,0.0033 0.0185,-0.0039 0.0263,0 0.0111,0.0055 0.016,0.01941 0.0263,0.02628 0.0354,0.02363 0.0915,0.04173 0.13141,0.0657 0.0188,0.01126 0.068,0.04856 0.092,0.05256 0.0483,0.0081 0.0502,-0.01191 0.092,0.01314 0.0106,0.0064 0.016,0.01941 0.0263,0.02628 0.007,0.0049 0.0184,-0.0039 0.0263,0 0.047,0.02351 0.054,0.02994 0.092,0.03942 0.0269,0.0067 0.0567,0.0097 0.0788,0.02628 0.008,0.0059 0.004,0.0219 0.0131,0.02628 0.0438,0.0219 0.0292,-0.0146 0.0657,0 0.0147,0.0059 0.0248,0.02041 0.0394,0.02628 0.008,0.0033 0.0175,0 0.0263,0 0.0175,0.0088 0.0344,0.01901 0.0526,0.02628 0.0328,0.01314 -0.0131,-0.02628 0.0394,0 0.004,0.002 -0.002,0.0095 0,0.01314 0.007,0.01031 0.0152,0.02074 0.0263,0.02628 0.008,0.0039 0.0181,-0.0033 0.0263,0 0.0488,0.0195 0.083,0.04958 0.1314,0.0657 0.004,0.0014 0.0112,-0.0039 0.0131,0 0.004,0.0078 -0.004,0.01844 0,0.02628 0.002,0.0039 0.01,-0.0031 0.0131,0 0.007,0.0069 0.006,0.01935 0.0131,0.02628 0.0298,0.02979 0.0289,-0.0078 0.0526,0.03942 0.004,0.0078 -0.004,0.01844 0,0.02628 0.002,0.0039 0.0112,-0.0039 0.0131,0 0.004,0.0078 -0.003,0.01797 0,0.02628 0.002,0.0059 0.0104,0.0076 0.0131,0.01314 0.007,0.01402 -0.007,0.03854 0,0.05256 0.002,0.0039 0.0112,-0.0039 0.0131,0 0.0304,0.06078 -0.0811,0.0054 -0.092,0 z"
       id="path69899" />
    <path
       style="fill:#00fff5;fill-opacity:1;stroke-width:0.210243"
       d="m 162.51794,249.42411 c -4.4951,-0.3887 -9.29717,-1.39843 -13.56068,-2.85139 -3.80338,-1.29615 -6.2443,-2.42672 -13.89772,-6.43706 -4.27073,-2.23784 -6.06889,-2.90127 -8.2339,-3.03791 -2.06362,-0.13024 -3.16408,0.2562 -4.32928,1.52029 -1.1094,1.20356 -1.70899,2.43268 -2.62933,5.38991 -0.77251,2.48223 -1.29483,3.42647 -2.0233,3.65768 -0.56296,0.17868 -1.24175,-0.23052 -1.50213,-0.90554 -0.47124,-1.22163 -0.56742,-7.14341 -0.35776,-22.02636 0.16525,-11.73022 0.15617,-16.37946 -0.0384,-19.65774 -0.30008,-5.05613 -0.30615,-4.55543 0.0894,-7.3785 0.29685,-2.11853 0.2919,-2.3224 -0.0888,-3.65377 -0.28383,-0.99249 -0.34255,-1.52345 -0.19829,-1.79299 0.11272,-0.21062 0.2592,-1.12088 0.32552,-2.02279 0.0663,-0.90192 0.21635,-1.89389 0.33342,-2.20438 0.39795,-1.05545 2.08738,-1.184 2.83394,-0.21562 0.48354,0.62722 0.90038,2.3225 1.87191,7.61305 2.96759,16.16032 6.57028,26.07427 12.55196,34.5407 1.95538,2.76764 7.11337,7.94736 9.82645,9.86785 2.17675,1.54085 5.7223,3.38369 8.18592,4.25473 1.8764,0.66342 5.71545,1.64317 8.31816,2.12285 2.51473,0.46345 10.43241,0.65023 13.38136,0.31566 8.86504,-1.00578 16.97236,-4.75058 22.57022,-10.42528 5.64807,-5.72561 8.93533,-14.93996 8.93533,-25.0462 0,-11.69964 -4.76125,-21.58444 -14.40829,-29.91299 -2.711,-2.34047 -4.5992,-3.62707 -5.41753,-3.69145 -0.73376,-0.0577 -1.1657,-0.42369 -2.2352,-1.89385 -0.68072,-0.93573 -0.86094,-1.05826 -1.64048,-1.11534 -0.70628,-0.0517 -0.98967,-0.20519 -1.46451,-0.79309 -1.526,-1.88934 -2.03169,-2.40155 -2.37097,-2.40155 -0.50673,0 -1.81631,-0.91821 -2.96274,-2.07733 -1.3831,-1.39841 -6.53153,-5.00658 -13.32218,-9.33658 -25.89614,-16.51244 -33.10774,-22.85543 -38.89338,-34.20885 -7.76382,-15.23528 -7.50074,-33.857856 0.6653,-47.09446 2.46023,-3.98786 6.22357,-8.161172 9.77832,-10.843538 8.90787,-6.721758 19.57466,-9.550299 36.00472,-9.547466 5.51063,9.5e-4 8.01127,0.205131 10.36828,0.846584 2.23964,0.609513 3.32157,1.096113 11.91749,5.359902 8.00792,3.972125 11.20143,5.417828 14.0416,6.356646 1.61202,0.532853 1.6545,0.535755 2.75675,0.188303 0.84934,-0.267733 1.3829,-0.631408 2.21106,-1.507062 1.30019,-1.374764 1.89106,-2.599395 2.7061,-5.608629 0.33454,-1.235187 0.77023,-2.492984 0.96818,-2.795106 0.46338,-0.707201 1.32632,-1.047154 1.94386,-0.76578 0.91412,0.416501 0.98631,1.663535 0.84729,14.636891 -0.2014,18.794033 -0.94111,35.223175 -1.64514,36.538655 -0.13781,0.25749 -0.39165,0.36272 -0.76965,0.31905 -1.10287,-0.12741 -1.54416,-1.43275 -4.00854,-11.857104 -3.15359,-13.339718 -9.92978,-25.49447 -17.21281,-30.875377 -2.32138,-1.7151 -5.3191,-3.380287 -7.23232,-4.01745 -0.90483,-0.301336 -1.69518,-0.628846 -1.75634,-0.727801 -0.0612,-0.09895 -0.65345,-0.337465 -1.31621,-0.530023 -0.66276,-0.192558 -2.15195,-0.710104 -3.30933,-1.150103 -2.54626,-0.96801 -3.77523,-1.212542 -7.43704,-1.479773 -4.85651,-0.354416 -11.5885,0.316542 -16.1083,1.605468 -4.06826,1.160158 -8.09272,3.559418 -11.6601,6.951406 -6.36669,6.053668 -9.0608,12.012976 -9.5849,21.20153 -0.24446,4.285846 0.44657,9.835817 1.70427,13.687677 2.44356,7.48371 8.91807,14.84087 20.06111,22.79597 1.10139,0.78629 5.45578,3.6436 9.67641,6.34956 37.18903,23.84296 47.28645,31.8427 53.72653,42.56518 2.09902,3.49479 4.2236,8.68372 5.14874,12.57491 1.73381,7.29258 1.4888,19.54993 -0.55262,27.64525 -2.52868,10.02759 -9.51703,18.93066 -19.52095,24.86944 -7.4352,4.41386 -16.63575,7.18095 -27.02809,8.12875 -2.8165,0.25687 -11.98215,0.24611 -15.03238,-0.0177 z"
       id="path69924" />
    <path
       style="fill:#00ff00;fill-opacity:1;stroke-width:0.210243"
       d="m 105.22669,198.45368 c -11.364424,-1.56177 -22.427003,-5.01224 -31.010865,-9.67246 -6.787907,-3.68519 -12.285094,-7.83544 -18.203556,-13.74329 -6.726859,-6.7148 -10.99561,-12.62112 -15.202778,-21.03484 -3.105898,-6.21134 -5.146979,-11.72245 -6.968926,-18.81676 -1.956166,-7.61692 -2.078698,-9.2776 -2.078698,-28.17258 0,-18.757224 0.124576,-20.487317 2.013444,-27.962333 7.155522,-28.317317 25.255208,-50.332318 49.916475,-60.714384 11.530946,-4.854375 20.722944,-6.644229 36.041674,-7.017984 9.52585,-0.232417 16.85837,0.573413 23.50846,2.583534 6.53903,1.976552 11.65026,4.554931 21.48357,10.837474 7.88424,5.037268 8.77044,5.427465 10.54445,4.642738 2.64543,-1.170202 4.61299,-4.207898 6.17567,-9.534547 1.62116,-5.526007 2.74975,-6.627695 3.29912,-3.220492 0.51867,3.216736 0.1584,31.249567 -0.48071,37.404729 -0.25294,2.43603 -0.39742,2.6286 -1.97085,2.626866 -1.6168,-0.0018 -2.65784,-0.373903 -3.49187,-1.248167 -0.80482,-0.843635 -0.95614,-1.200926 -2.29689,-5.423241 -2.65947,-8.375197 -9.01087,-17.162323 -17.14012,-23.71322 -4.37078,-3.522168 -11.0158,-7.236225 -15.97398,-8.92824 -6.46012,-2.20456 -14.0962,-2.807512 -22.45305,-1.772914 -7.48451,0.926599 -12.4797,2.689766 -17.39252,6.139086 -2.81562,1.976864 -7.821852,7.025562 -10.366611,10.454544 -10.845514,14.613983 -17.057202,35.556766 -18.645251,62.862696 -0.268043,4.608912 -0.269445,16.876635 -0.0024,21.339675 0.81911,13.69152 2.748826,25.42065 5.801632,35.26324 1.84214,5.93928 5.266208,14.18673 8.302476,19.99793 2.486043,4.75811 4.081002,6.83833 8.739307,11.39823 4.457247,4.36309 7.538467,6.70754 11.896927,9.05219 3.87485,2.0845 4.57368,2.80644 4.57509,4.72639 10e-4,1.70902 -0.29453,1.86398 -3.6473,1.91086 -1.52038,0.0212 -3.75773,-0.0979 -4.97188,-0.26473 z"
       id="path69925" />
    <path
       style="fill:#00ff00;fill-opacity:1;stroke-width:0.0441942"
       d="m 183.23383,195.7398 c -0.0946,-0.0352 -0.25807,-0.14847 -0.36328,-0.25172 -0.51304,-0.50352 -0.83624,-1.5963 -1.18798,-4.01682 -0.0865,-0.59552 -0.21571,-1.37113 -0.28706,-1.72358 -0.52166,-2.57721 -1.53081,-4.87635 -2.86118,-6.51864 -0.87138,-1.07567 -1.7638,-1.73957 -2.7962,-2.08019 -0.33785,-0.11147 -0.4379,-0.12411 -0.99437,-0.12564 l -0.61872,-0.002 -0.60307,0.20486 c -1.80338,0.6126 -4.68746,2.05663 -7.48446,3.74741 -0.63198,0.38202 -1.71584,1.03854 -2.40858,1.45891 -3.37767,2.04967 -7.90714,4.60798 -11.09274,6.26535 -1.34214,0.69828 -3.11866,1.49412 -5.02773,2.25231 -0.0445,0.0177 -0.0535,-0.25467 -0.0442,-1.33345 l 0.0117,-1.35564 0.50823,-0.21106 c 4.26701,-1.77195 8.61057,-4.50375 12.61744,-7.93548 3.51167,-3.00762 7.83915,-7.55826 10.59247,-11.13872 1.33211,-1.7323 2.15755,-3.11517 2.15755,-3.61459 0,-0.14465 0.01,-0.15425 0.18141,-0.18173 0.0998,-0.016 0.23801,-0.0583 0.30717,-0.094 0.0692,-0.0358 0.14269,-0.065 0.1634,-0.065 0.0207,0 0.38464,0.34469 0.80874,0.76598 1.10659,1.09928 1.69213,1.48782 2.2423,1.48789 0.62731,7e-5 1.20253,0.52718 1.9397,1.77743 0.69195,1.17355 1.47494,1.74387 2.01251,1.46589 0.0969,-0.0501 0.19609,-0.0633 0.33396,-0.0444 0.51039,0.07 1.08011,0.60526 1.62814,1.52979 0.42956,0.72469 0.86758,1.21402 1.26403,1.41213 0.14833,0.0741 0.32483,0.13476 0.39223,0.13476 0.0779,0 0.13149,0.0282 0.14712,0.0774 0.0135,0.0426 0.10715,2.39426 0.20809,5.22596 0.20398,5.72279 0.2529,9.58055 0.13448,10.60653 -0.15932,1.38029 -0.41674,1.9562 -0.98684,2.20777 -0.27618,0.12187 -0.67413,0.15392 -0.89426,0.072 z"
       id="path69929" />
    <path
       style="fill:#00ff00;fill-opacity:1;stroke-width:0.0441942"
       d="m 133.38966,198.27571 c -0.44723,-0.0753 -0.63071,-0.16727 -0.90627,-0.45423 -0.62596,-0.65188 -0.59943,-1.03301 0.0991,-1.42399 0.65318,-0.36558 1.89762,-0.68427 5.25911,-1.34681 2.72129,-0.53637 4.91736,-1.11025 7.15945,-1.87093 0.76945,-0.26105 1.87917,-0.67048 2.28769,-0.84404 l 0.16637,-0.0707 -0.0117,1.35658 -0.0117,1.35658 -0.68501,0.25939 c -2.62545,0.99418 -5.99961,2.00352 -8.46318,2.53167 -2.12185,0.45489 -4.02843,0.65219 -4.89391,0.50646 z"
       id="path69930" />
  </g>
</svg>
